<svg width="20" height="20" viewBox="0 0 20 20" fill="none" xmlns="http://www.w3.org/2000/svg">
<path d="M7.95996 1.24995L7.95996 16.4811L11.1339 17.5737L11.1339 4.80261C11.1339 4.20081 11.3809 3.80125 11.7769 3.93866C12.2948 4.09472 12.3954 4.64908 12.3954 5.24418V10.3448C14.371 11.3838 15.9265 10.3442 15.9265 7.60284C15.9265 4.80152 15.0145 3.55358 12.3313 2.55022C11.2729 2.16731 9.31143 1.52116 7.95996 1.24995Z" fill="white"/>
<path d="M11.959 15.3441L16.7567 13.1836C17.2995 12.929 17.3824 12.5832 16.9432 12.4015C16.497 12.2163 15.7007 12.2693 15.1522 12.5185L11.959 13.9437V11.6697L12.1418 11.5933C12.1418 11.5933 13.0661 11.179 14.3662 11.0007C15.6637 10.8207 17.255 11.0241 18.5056 11.6205C19.9145 12.1868 20.0724 13.0128 19.7159 13.5876C19.3543 14.1564 18.4775 14.5679 18.4775 14.5679L11.959 17.5306" fill="white"/>
<path d="M1.42492 15.5955C-0.0723948 15.1203 -0.322083 14.1162 0.360983 13.5362C0.991055 13.0066 2.0641 12.6079 2.0641 12.6079L6.4998 10.8062V12.8568L3.31075 14.159C2.74586 14.3892 2.66117 14.7131 3.11617 14.8825C3.57929 15.0588 4.40118 15.0114 4.96639 14.7738L6.4998 14.144V15.9746C6.40096 15.9934 6.29107 16.0125 6.19078 16.032C4.66192 16.321 3.0331 16.2023 1.42492 15.5955Z" fill="white"/>
<path fill-rule="evenodd" clip-rule="evenodd" d="M19.8051 17.4658C19.6791 17.5954 19.5137 17.6687 19.3356 17.6687C19.1575 17.6687 18.9867 17.5954 18.8605 17.4658C18.7359 17.3338 18.667 17.1614 18.667 16.9756C18.667 16.5908 18.9659 16.2798 19.3356 16.2798C19.5137 16.2798 19.6791 16.3507 19.8051 16.4832C19.9297 16.6127 20 16.7881 20 16.9756C20 17.1614 19.9297 17.3338 19.8051 17.4658ZM18.7793 16.9755C18.7793 16.8173 18.8362 16.6722 18.9399 16.5646C19.0463 16.4547 19.1882 16.3955 19.3356 16.3955C19.4832 16.3955 19.6215 16.4547 19.7253 16.5646C19.83 16.6722 19.8865 16.8173 19.8865 16.9755C19.8865 17.2925 19.6392 17.5498 19.3356 17.5498C19.1882 17.5498 19.0463 17.4912 18.9399 17.3827C18.8362 17.2733 18.7793 17.1298 18.7793 16.9755ZM19.6398 17.264C19.6458 17.282 19.653 17.2926 19.6633 17.2957L19.6725 17.3011V17.3452H19.5279L19.5253 17.3364L19.5154 17.3097C19.5137 17.2957 19.5118 17.2773 19.5099 17.2464L19.5034 17.1256C19.5018 17.0828 19.4883 17.0578 19.4635 17.0413C19.4451 17.0349 19.42 17.0299 19.3826 17.0299H19.1818V17.3452H19.05V16.5708H19.3955C19.4518 16.5708 19.4992 16.5812 19.5356 16.5973C19.6084 16.633 19.6458 16.6973 19.6458 16.7879C19.6458 16.8323 19.6352 16.8739 19.6169 16.9046C19.6011 16.9263 19.5824 16.9461 19.562 16.9654L19.5675 16.9694C19.5813 16.9795 19.5949 16.9895 19.603 17.0042C19.6214 17.0254 19.6298 17.061 19.6313 17.1066L19.6346 17.2053C19.6352 17.2305 19.6371 17.2502 19.6398 17.264ZM19.484 16.8833C19.5054 16.8689 19.5154 16.8404 19.5154 16.7968C19.5154 16.7508 19.5001 16.7201 19.4702 16.7048C19.4518 16.6973 19.4289 16.6919 19.3983 16.6919H19.1818V16.9095H19.3863C19.427 16.9095 19.4593 16.9007 19.484 16.8833Z" fill="white"/>
</svg>
