<svg width="20" height="20" viewBox="0 0 20 20" fill="none" xmlns="http://www.w3.org/2000/svg">
<path fill-rule="evenodd" clip-rule="evenodd" d="M14.8842 20H11.8082C11.7298 20 11.667 19.9371 11.667 19.8585V0.125786C11.667 0.0628931 11.7141 0 11.7925 0H14.8842C17.7091 0 20.0003 2.2956 20.0003 5.12579V14.8742C20.0003 17.7044 17.7091 20 14.8842 20ZM17.6306 11.0062C17.6306 9.88984 16.7204 8.97789 15.6061 8.97789C14.4919 8.97789 13.5974 9.88984 13.5817 11.0062C13.5817 12.1225 14.4919 13.0345 15.6061 13.0345C16.7204 13.0345 17.6306 12.1225 17.6306 11.0062Z" fill="white"/>
<path d="M3.33301 6.66654C3.33301 7.58321 4.08301 8.33321 4.99967 8.33321C5.91634 8.33321 6.66634 7.58321 6.66634 6.66654C6.66634 5.74988 5.91634 4.99988 4.99967 4.99988C4.06912 4.99988 3.33301 5.73599 3.33301 6.66654Z" fill="white"/>
<path fill-rule="evenodd" clip-rule="evenodd" d="M5.31811 0H9.85318C9.93475 0 10 0.0628931 10 0.141509V19.8585C10 19.9371 9.93475 20 9.85318 20H5.31811C2.38173 20 0 17.7044 0 14.8742V5.12579C0 2.2956 2.38173 0 5.31811 0ZM5.31813 18.3962H8.33607V1.60378H5.31813C4.33934 1.60378 3.4258 1.98113 2.74064 2.64151C2.03917 3.30189 1.66397 4.18239 1.66397 5.12579V14.8742C1.66397 15.8176 2.05549 16.6981 2.74064 17.3585C3.4258 18.0346 4.33934 18.3962 5.31813 18.3962Z" fill="white"/>
</svg>
