<svg width="20" height="20" viewBox="0 0 20 20" fill="none" xmlns="http://www.w3.org/2000/svg">
<path fill-rule="evenodd" clip-rule="evenodd" d="M10.5 2.5C12.0429 2.5 13.319 2.993 14.481 3.82213C14.5 3.82213 14.5 3.84454 14.5 3.86695C14.5 3.88936 14.481 3.88936 14.4619 3.88936C12.9762 3.5084 10.7286 5.0098 10.519 5.16667H10.5H10.481C10.2714 5.0098 8.02381 3.5084 6.5381 3.88936C6.51905 3.88936 6.5 3.88936 6.5 3.86695C6.5 3.84454 6.5 3.82213 6.51905 3.82213C7.68095 2.993 8.95714 2.5 10.5 2.5ZM15.6124 16.579C16.8123 15.3372 12.8447 10.9519 10.5029 9.1667C10.5029 9.1667 10.4836 9.1667 10.4836 9.1861C8.16109 10.9519 4.17417 15.3372 5.39347 16.579C6.74825 17.7821 8.54817 18.5 10.5029 18.5C12.4577 18.5 14.2382 17.7821 15.6124 16.579ZM4.69178 5.20466C4.68265 5.20466 4.67808 5.20967 4.67352 5.21469C4.66895 5.2197 4.66438 5.22471 4.65525 5.22471C3.32192 6.68867 2.5 8.71414 2.5 10.9402C2.5 12.7651 3.06621 14.4697 3.99772 15.8133C3.99772 15.8334 4.01598 15.8334 4.03425 15.8334C4.05251 15.8334 4.05251 15.8133 4.03425 15.7933C3.46804 13.8881 6.33562 9.29571 7.81507 7.37051L7.83333 7.35046C7.83333 7.34012 7.83333 7.33511 7.83083 7.33268C7.82848 7.3304 7.82392 7.3304 7.81507 7.3304C5.56849 4.88379 4.81963 5.1445 4.69178 5.20466ZM13.1667 7.34218L13.185 7.3221C15.4316 4.89318 16.1804 5.15414 16.29 5.19429C16.2976 5.19429 16.3021 5.19429 16.306 5.19573C16.3115 5.19776 16.3159 5.20263 16.3266 5.21436C17.6782 6.67974 18.5001 8.70719 18.5001 10.9354C18.5001 12.7621 17.9339 14.4684 17.0024 15.8133C17.0024 15.8334 16.9841 15.8334 16.9658 15.8334V15.7932C17.5138 13.8862 14.6645 9.28933 13.185 7.36225C13.1667 7.36225 13.1667 7.34218 13.1667 7.34218Z" fill="white"/>
</svg>
